<svg xmlns:xlink="http://www.w3.org/1999/xlink" xmlns="http://www.w3.org/2000/svg" class="footer-brandmark logo-small" width="62"  height="56" ><defs><symbol id="logo-small" viewBox="0 0 62 56">
    <g fill="none" fill-rule="evenodd">
      <path d="M35 26.339v-4h8v4h-8zm0-17h16v4l-4 5v8h-2v-6H33v6h-2v-8l4-5v-4zm-4 43h2v-6h-2v6zm0-8h2v-6h-2v6zm-4 0h2v-6h-2v6zm0 8h2v-6h-2v6zm-4-8h2v-6h-2v6zm0 8h2v-6h-2v6zm-6 0h2v-6h-2v6zm0-8h2v-6h-2v6zm-4 8h2v-6h-2v6zm0-8h2v-6h-2v6zm-4 8h2v-6H9v6zm0-8h2v-6H9v6zm31-10l-4 22H6l-4-22h38zm-40-2v-4h41v4H0zM16.126 7.672l2.828-2.829c.391-.391 1.024-.391 1.414 0 .391.391.391 1.024 0 1.415L17.54 9.086c-.391.391-1.024.391-1.414 0-.391-.391-.391-1.023 0-1.414zm9.485-.414c.391.39.391 1.023 0 1.414l-4.243 4.242c-.39.391-1.023.391-1.414 0-.39-.39-.39-1.023 0-1.414l4.243-4.242c.39-.391 1.024-.391 1.414 0zm2.414 3.828c.391-.391 1.024-.391 1.414 0 .391.391.391 1.023 0 1.414l-4.242 4.243c-.39.39-1.024.39-1.415 0-.39-.39-.39-1.024 0-1.415l4.243-4.242zm-6.08 8.566c.66-.207 1.35-.313 2.055-.313 1.96 0 3.73.812 5 2.115v-4.115l4-5v-1.936l-6.621-6.621c-3.71-3.71-9.726-3.71-13.436 0-3.673 3.675-3.703 9.607-.1 13.325.955-.486 2.026-.768 3.157-.768 2.481 0 4.701 1.304 5.945 3.313z" fill="#FFFFFF"></path>
      <path d="M24 21.339c2.762 0 5 2.238 5 5H3c0-.396.057-.775.144-1.144.432-1.838 1.874-3.28 3.712-3.712.369-.087.748-.144 1.144-.144 1.174 0 2.238.421 3.091 1.098.426-2.329 2.457-4.098 4.909-4.098s4.483 1.769 4.909 4.098c.853-.677 1.917-1.098 3.091-1.098zm19 11v-4h19v4H43zm10-18l4 5v7h-8v-7l4-5zM42.0003 34.3392h18l-4.001 22h-18l4.001-22z" fill="#99AFFF"></path>
    </g>
  </symbol></defs><use xlink:href="#logo-small"></use></svg>